<svg width="240" height="240" viewBox="0 0 240 240" fill="none" xmlns="http://www.w3.org/2000/svg">
<g clip-path="url(#clip0_954_10852)">
<path d="M204.844 0H35.1562C15.74 0 0 15.74 0 35.1562V204.844C0 224.26 15.74 240 35.1562 240H204.844C224.26 240 240 224.26 240 204.844V35.1562C240 15.74 224.26 0 204.844 0Z" fill="#8A181B"/>
<path d="M34.6875 48.1414L194.297 36.9805L203.006 161.52L170.388 199.041L45.8484 207.751L34.6875 48.1414Z" fill="white" stroke="#E1DCD6" stroke-width="2.5"/>
<path d="M203.009 161.523L167.938 163.975L170.391 199.045L203.009 161.523Z" fill="#ECE6DE"/>
<path d="M120.188 63.75C129.831 63.75 137.648 55.9325 137.648 46.2891C137.648 36.6457 129.831 28.8281 120.188 28.8281C110.544 28.8281 102.727 36.6457 102.727 46.2891C102.727 55.9325 110.544 63.75 120.188 63.75Z" fill="#1E2D3E" stroke="white" stroke-width="2.5"/>
<path d="M120.188 60.9375V93.2812" stroke="#1E2D3E" stroke-width="7.5" stroke-linecap="round"/>
<path d="M77.8125 128.438L164.062 122.344" stroke="#2A9D8F" stroke-width="15" stroke-linecap="round"/>
</g>
<defs>
<clipPath id="clip0_954_10852">
<rect width="240" height="240" fill="white"/>
</clipPath>
</defs>
</svg>
